<?xml version="1.0" standalone="no"?>
<!DOCTYPE svg PUBLIC "-//W3C//DTD SVG 20010904//EN"
 "http://www.w3.org/TR/2001/REC-SVG-20010904/DTD/svg10.dtd">
<svg version="1.0" xmlns="http://www.w3.org/2000/svg"
 width="428.000000pt" height="428.000000pt" viewBox="0 0 428.000000 428.000000"
 preserveAspectRatio="xMidYMid meet">
<metadata>
Created by potrace 1.14, written by Peter Selinger 2001-2017
</metadata>
<g transform="translate(0.000000,428.000000) scale(0.100000,-0.100000)"
fill="#000000" stroke="none">
<path d="M597 3213 c-4 -3 -7 -237 -7 -520 l0 -513 520 0 520 0 0 520 0 520
-513 0 c-283 0 -517 -3 -520 -7z"/>
<path d="M963 1910 c-24 -10 -53 -58 -53 -87 0 -32 30 -63 91 -93 48 -25 59
-35 59 -55 0 -30 -31 -40 -95 -32 -34 5 -44 3 -49 -9 -11 -28 -7 -32 43 -44
93 -22 166 17 166 90 0 48 -24 75 -92 106 -56 24 -68 49 -37 75 12 10 25 10
57 2 23 -7 42 -11 43 -10 1 1 5 12 8 24 6 19 2 25 -19 33 -32 12 -92 12 -122
0z"/>
<path d="M620 1750 l0 -160 30 0 30 0 0 70 0 70 45 0 45 0 0 -70 0 -70 30 0
30 0 0 160 0 160 -30 0 -30 0 0 -60 0 -60 -45 0 -45 0 0 60 0 60 -30 0 -30 0
0 -160z"/>
</g>
</svg>
